<?xml version="1.0" encoding="UTF-8"?>
<svg xmlns="http://www.w3.org/2000/svg" viewBox="0 0 1024 1024">
  <defs>
    <linearGradient id="g" x1="0%" y1="100%" x2="100%" y2="0%">
      <stop offset="0%" stop-color="#7C3AED"/>
      <stop offset="50%" stop-color="#3B82F6"/>
      <stop offset="100%" stop-color="#1E1B8F"/>
    </linearGradient>
  </defs>

  <!-- Bag -->
  <path fill="url(#g)"
        d="M300 280
           C300 180 380 120 512 120
           C644 120 724 180 724 280
           L724 320
           C724 338 710 352 692 352
           C674 352 660 338 660 320
           L660 284
           C660 224 606 184 512 184
           C418 184 364 224 364 284
           L364 320
           C364 338 350 352 332 352
           C314 352 300 338 300 320
           Z"/>

  <path fill="url(#g)"
        d="M220 330
           C220 295 248 268 284 268
           H740
           C776 268 804 295 804 330
           V760
           C804 838 748 904 670 904
           H354
           C276 904 220 838 220 760
           Z"/>

  <!-- Negative-space roof -->
  <path fill="#FFFFFF"
        d="M405 540 L690 450 L690 520 L495 580 L495 740 L405 740 Z"/>

  <!-- Growth bars -->
  <rect x="525" y="640" width="42" height="120" rx="21" fill="url(#g)"/>
  <rect x="595" y="590" width="42" height="170" rx="21" fill="url(#g)"/>
  <rect x="665" y="520" width="42" height="240" rx="21" fill="url(#g)"/>
</svg>
