<svg xmlns="http://www.w3.org/2000/svg" viewBox="0 0 2235 672" role="img" aria-label="soakd loading" fill="currentColor" style="color:#1d1c1a"><style>.rr{animation:rr 2.4s cubic-bezier(.45,.05,.3,1) infinite}.rd{animation:rd 1.4s linear infinite}.rl{animation:rl 2.4s ease-in-out infinite}@keyframes rr{0%{transform:translateY(376px)}100%{transform:translateY(-376px)}}@keyframes rd{to{transform:translateX(-745px)}}@keyframes rl{0%{opacity:0}12%{opacity:1}86%{opacity:1}100%{opacity:0}}@media(prefers-reduced-motion:reduce){.rr,.rd,.rl{animation:none}.rl{opacity:.55}}</style><defs><path id="g2" transform="translate(0 672) scale(.1 -.1)" d="M14415 6343 c-196 -42 -291 -156 -300 -361 -3 -53 -7 -1258 -9 -2677 -5 -2842 -9 -2660 57 -2763 37 -59 101 -110 172 -138 40 -15 75 -19 170 -19 120 0 129 2 221 47 48 23 124 113 144 171 20 55 21 86 24 621 2 310 8 570 12 579 11 19 412 411 426 416 6 2 24 -12 40 -30 53 -62 422 -523 446 -558 13 -18 30 -40 38 -48 14 -15 112 -138 167 -211 15 -20 44 -57 65 -81 20 -24 48 -60 62 -80 14 -19 33 -45 43 -56 10 -11 43 -51 73 -90 30 -38 81 -104 114 -145 120 -150 186 -234 212 -272 137 -193 213 -249 366 -269 161 -22 281 16 372 119 66 73 84 135 77 256 -7 126 -35 193 -121 286 -28 31 -88 103 -134 160 -45 58 -88 112 -96 120 -10 12 -81 102 -114 145 -74 97 -143 183 -268 335 -65 80 -125 157 -154 198 -14 20 -36 47 -49 62 -13 14 -38 43 -55 65 -18 22 -77 96 -132 164 -117 147 -130 163 -206 261 -32 41 -64 82 -71 90 -69 82 -87 107 -87 121 0 9 69 81 153 160 83 79 222 212 307 294 85 83 216 209 290 280 562 540 624 603 650 660 19 40 23 68 24 145 1 84 -2 101 -27 151 -32 66 -56 93 -117 136 -119 81 -278 84 -430 7 -19 -9 -132 -113 -250 -229 -118 -116 -302 -294 -409 -396 -198 -187 -576 -554 -731 -709 -47 -47 -116 -114 -155 -149 -38 -35 -121 -112 -184 -170 -62 -58 -119 -107 -127 -109 -11 -3 -14 256 -16 1615 l-3 1618 -23 55 c-13 30 -35 70 -49 88 -40 53 -119 109 -177 126 -50 15 -182 20 -231 9z M21510 6336 c-163 -47 -265 -162 -285 -321 -4 -33 -8 -486 -7 -1007 0 -873 -1 -948 -17 -948 -9 1 -32 21 -51 46 -19 25 -80 87 -135 137 -55 51 -101 95 -103 100 -2 4 -8 7 -14 7 -6 0 -27 13 -47 29 -20 16 -66 45 -103 65 -36 20 -72 43 -78 51 -7 8 -20 15 -29 15 -9 0 -21 4 -26 8 -28 24 -226 90 -365 122 -147 35 -486 50 -655 31 -173 -20 -378 -62 -495 -101 -53 -17 -183 -72 -197 -83 -7 -5 -43 -24 -80 -43 -133 -66 -278 -165 -387 -264 -194 -176 -336 -346 -423 -507 -78 -146 -145 -289 -173 -373 -17 -52 -35 -104 -40 -115 -45 -108 -100 -481 -100 -679 0 -199 36 -463 85 -626 9 -30 21 -72 26 -93 5 -21 13 -45 18 -55 5 -9 19 -44 31 -77 58 -153 196 -391 322 -555 132 -172 365 -371 578 -493 143 -82 344 -167 465 -196 22 -5 65 -17 95 -26 211 -62 620 -81 875 -39 156 25 397 87 472 120 17 8 34 14 37 14 20 0 285 137 351 182 44 29 103 69 130 88 28 19 70 52 95 74 80 71 250 250 277 291 15 22 36 51 48 65 28 33 143 225 193 325 63 124 88 185 122 305 11 41 25 89 29 105 13 42 38 181 56 310 22 158 23 3712 1 3817 -27 128 -102 224 -214 276 -46 21 -75 27 -147 29 -53 1 -109 -3 -135 -11z m-1478 -2397 c29 -6 87 -17 128 -26 251 -50 443 -156 635 -348 137 -137 196 -221 289 -410 112 -229 161 -556 126 -845 -14 -114 -58 -300 -81 -342 -5 -10 -9 -24 -9 -31 0 -24 -99 -218 -156 -305 -61 -94 -236 -272 -326 -332 -277 -185 -625 -271 -933 -229 -173 23 -320 65 -436 124 -70 36 -196 117 -214 139 -5 6 -23 22 -40 35 -109 84 -234 227 -308 352 -47 80 -107 203 -107 219 0 6 -4 18 -9 28 -14 25 -39 118 -52 187 -5 33 -15 83 -20 110 -19 93 -22 352 -5 450 41 239 69 331 157 501 79 155 146 248 258 359 89 88 234 204 255 205 5 0 17 6 25 14 21 18 191 86 261 104 193 49 435 67 562 41z M11135 4679 c-221 -12 -409 -47 -615 -116 -113 -37 -269 -112 -410 -196 -80 -48 -119 -77 -248 -179 -66 -53 -277 -274 -315 -331 -15 -23 -36 -50 -45 -60 -48 -52 -220 -384 -253 -486 -11 -36 -25 -75 -29 -86 -24 -58 -66 -231 -75 -310 -4 -33 -14 -89 -22 -125 -19 -84 -21 -494 -3 -590 44 -232 54 -279 76 -357 24 -87 63 -203 84 -248 29 -64 90 -189 100 -205 5 -8 31 -51 57 -95 150 -254 347 -457 623 -646 120 -81 243 -142 405 -202 88 -32 331 -91 450 -109 132 -19 447 -17 560 5 90 18 108 22 220 52 144 40 360 132 436 186 15 10 30 19 33 19 11 0 131 94 208 163 42 38 103 100 135 138 31 38 63 69 70 69 16 0 13 18 20 -138 4 -112 10 -147 33 -213 31 -88 50 -115 112 -165 68 -54 125 -69 258 -69 145 0 208 19 284 87 55 49 94 115 115 198 17 64 10 1967 -8 2098 -11 81 -21 136 -62 332 -5 25 -13 54 -17 65 -5 11 -23 65 -41 120 -40 124 -141 330 -220 449 -14 21 -35 53 -46 70 -10 17 -24 36 -31 41 -6 6 -33 39 -59 75 -76 101 -218 237 -353 338 -67 51 -126 92 -131 92 -5 0 -19 9 -32 19 -63 49 -261 147 -385 190 -273 94 -576 136 -879 120z m380 -752 c39 -9 88 -20 110 -24 183 -41 410 -178 578 -349 224 -228 361 -533 396 -882 24 -233 -2 -487 -71 -687 -81 -235 -170 -377 -345 -551 -118 -118 -194 -173 -331 -243 -71 -36 -70 -36 -177 -69 -141 -44 -260 -62 -410 -62 -328 0 -607 99 -845 298 -274 230 -404 463 -496 882 -22 102 -26 392 -7 480 7 30 22 98 33 150 23 106 74 259 101 305 9 16 34 61 54 99 66 123 115 187 240 311 118 118 302 241 405 270 14 4 39 13 55 20 17 7 68 22 115 33 47 12 103 26 125 31 61 15 387 6 470 -12z M1830 4669 c-360 -59 -458 -87 -685 -201 -121 -60 -186 -103 -285 -186 -226 -191 -335 -404 -364 -714 -49 -511 206 -900 739 -1128 28 -11 59 -25 70 -30 153 -64 318 -111 635 -179 304 -65 377 -82 420 -95 25 -8 72 -21 105 -30 130 -36 183 -57 315 -126 56 -29 154 -124 183 -177 34 -64 57 -153 57 -223 0 -63 -31 -172 -60 -212 -11 -15 -20 -30 -20 -33 0 -4 -16 -27 -36 -51 -38 -45 -149 -126 -194 -139 -14 -4 -29 -11 -35 -15 -68 -50 -458 -108 -645 -97 -119 7 -276 25 -335 38 -63 14 -185 50 -205 60 -8 4 -58 29 -110 54 -114 57 -167 96 -310 229 -81 76 -133 114 -186 137 -42 19 -61 21 -168 17 -133 -5 -168 -16 -245 -77 -24 -19 -60 -59 -79 -90 -36 -54 -37 -59 -40 -169 l-4 -112 38 -78 c41 -81 148 -200 230 -255 22 -15 50 -36 62 -47 12 -11 24 -20 28 -20 3 0 23 -13 44 -30 21 -16 40 -30 44 -30 3 0 40 -21 83 -46 42 -25 103 -56 134 -70 86 -36 249 -96 289 -106 221 -57 274 -69 390 -84 193 -25 299 -33 435 -33 178 0 398 21 495 48 19 5 69 17 110 26 285 64 566 207 743 380 185 182 231 261 328 563 22 70 37 274 27 387 -9 109 -36 229 -63 282 -8 15 -15 31 -15 35 0 14 -65 143 -95 188 -42 64 -179 199 -250 245 -176 116 -338 199 -480 245 -38 13 -74 27 -80 31 -5 4 -28 10 -50 14 -22 4 -44 11 -50 15 -5 4 -30 11 -55 15 -25 4 -52 11 -61 16 -9 4 -41 13 -70 18 -84 16 -189 38 -244 50 -27 6 -81 19 -120 27 -38 9 -97 22 -130 29 -33 8 -91 21 -130 30 -38 9 -81 20 -95 25 -14 5 -59 19 -100 31 -86 25 -79 23 -184 75 -108 54 -211 156 -246 245 -28 71 -33 183 -12 256 29 99 139 220 251 274 102 49 173 71 326 101 108 20 427 17 540 -6 162 -33 325 -96 405 -155 19 -14 51 -37 71 -51 20 -14 75 -61 122 -105 150 -141 243 -181 397 -172 47 3 102 10 122 16 70 22 157 105 189 180 5 13 13 51 18 85 20 148 -62 296 -261 468 -127 110 -162 132 -354 233 -124 65 -330 138 -462 165 -188 39 -312 50 -542 49 -129 -1 -260 -5 -290 -10z M6120 4664 c-363 -52 -599 -129 -836 -271 -39 -24 -74 -43 -77 -43 -3 0 -34 -20 -69 -45 -35 -24 -87 -61 -117 -82 -72 -49 -297 -275 -370 -371 -32 -42 -77 -108 -99 -147 -63 -107 -182 -347 -182 -366 0 -10 -4 -20 -9 -23 -5 -3 -12 -22 -16 -42 -3 -20 -10 -44 -15 -53 -52 -98 -120 -517 -120 -739 0 -141 32 -409 60 -507 5 -16 18 -66 30 -110 58 -217 206 -515 354 -710 81 -106 272 -297 374 -373 46 -34 86 -62 89 -62 3 0 22 -13 43 -30 21 -16 41 -30 46 -30 4 0 15 -6 23 -14 19 -17 176 -98 276 -143 113 -50 277 -102 385 -122 246 -45 284 -50 470 -56 104 -4 215 -2 275 4 173 19 253 30 292 40 21 5 72 17 113 26 93 21 236 68 309 102 31 14 76 34 100 45 80 34 217 120 366 230 57 42 330 323 372 383 247 352 323 531 406 950 19 98 22 142 21 400 0 255 -3 303 -22 400 -59 304 -120 473 -264 735 -81 148 -184 277 -353 446 -172 171 -312 271 -515 368 -41 20 -82 40 -90 45 -8 5 -26 13 -40 19 -14 5 -38 15 -55 22 -54 22 -138 48 -230 70 -49 12 -108 25 -130 31 -146 34 -620 49 -795 23z m480 -714 c154 -19 272 -51 400 -108 30 -13 66 -28 78 -33 72 -28 289 -193 362 -275 117 -132 142 -169 206 -302 197 -410 229 -833 93 -1244 -30 -89 -100 -249 -128 -293 -15 -22 -31 -47 -36 -56 -43 -70 -179 -219 -264 -287 -25 -20 -57 -47 -71 -60 -14 -12 -34 -25 -45 -28 -11 -4 -27 -12 -36 -20 -57 -50 -293 -140 -444 -170 -122 -24 -418 -24 -560 0 -103 18 -193 42 -210 57 -5 5 -15 9 -23 9 -24 0 -135 50 -207 94 -153 92 -364 293 -457 436 -80 121 -110 182 -148 290 -42 120 -46 138 -70 293 -61 396 22 785 237 1110 98 148 328 358 483 440 230 121 566 180 840 147z"/><clipPath id="cp2"><use href="#g2"/></clipPath></defs><use href="#g2" opacity=".15"/><g clip-path="url(#cp2)"><g class="rl"><g class="rr"><g class="rd"><path d="M-745 932L-745 336.0L-704 342.8L-662 348.9L-621 353.3L-579 355.7L-538 355.7L-497 353.3L-455 348.9L-414 342.8L-372 336.0L-331 329.2L-290 323.1L-248 318.7L-207 316.3L-166 316.3L-124 318.7L-83 323.1L-41 329.2L0 336.0L41 342.8L83 348.9L124 353.3L166 355.7L207 355.7L248 353.3L290 348.9L331 342.8L373 336.0L414 329.2L455 323.1L497 318.7L538 316.3L579 316.3L621 318.7L662 323.1L704 329.2L745 336.0L786 342.8L828 348.9L869 353.3L911 355.7L952 355.7L993 353.3L1035 348.9L1076 342.8L1118 336.0L1159 329.2L1200 323.1L1242 318.7L1283 316.3L1324 316.3L1366 318.7L1407 323.1L1449 329.2L1490 336.0L1531 342.8L1573 348.9L1614 353.3L1656 355.7L1697 355.7L1738 353.3L1780 348.9L1821 342.8L1863 336.0L1904 329.2L1945 323.1L1987 318.7L2028 316.3L2069 316.3L2111 318.7L2152 323.1L2194 329.2L2235 336.0L2276 342.8L2318 348.9L2359 353.3L2401 355.7L2442 355.7L2483 353.3L2525 348.9L2566 342.8L2607 336.0L2649 329.2L2690 323.1L2732 318.7L2773 316.3L2814 316.3L2856 318.7L2897 323.1L2939 329.2L2980 336.0L2980 932Z"/></g></g></g></g></svg>