<?xml version="1.0" encoding="UTF-8"?>
<svg version="1.1" xmlns="http://www.w3.org/2000/svg" width="132" height="38" viewBox="34 82 132 38">
<path d="M0 0 C66 0 132 0 200 0 C200 66 200 132 200 200 C134 200 68 200 0 200 C0 134 0 68 0 0 Z " fill="#FEFEFE" transform="translate(0,0)"/>
<path d="M0 0 C3.63 0 7.26 0 11 0 C11.33 1.65 11.66 3.3 12 5 C11.01 6.485 11.01 6.485 10 8 C9.34 8 8.68 8 8 8 C8.33 10.31 8.66 12.62 9 15 C8.01 15 7.02 15 6 15 C5.67 13.35 5.34 11.7 5 10 C3.68 9.67 2.36 9.34 1 9 C0.67 10.98 0.34 12.96 0 15 C-1.32 14.67 -2.64 14.34 -4 14 C-2.68 9.38 -1.36 4.76 0 0 Z " fill="#193661" transform="translate(60,92)"/>
<path d="M0 0 C1.47906892 -0.02689216 2.95827483 -0.04634621 4.4375 -0.0625 C5.26121094 -0.07410156 6.08492187 -0.08570312 6.93359375 -0.09765625 C9 0 9 0 10 1 C10.45506692 7.14340344 10.45506692 7.14340344 8.9375 10 C5.86664787 11.58495594 3.27813225 10.68036707 0 10 C-0.33 11.98 -0.66 13.96 -1 16 C-1.99 16 -2.98 16 -4 16 C-3.71515154 14.26969709 -3.42180062 12.54079286 -3.125 10.8125 C-2.96257812 9.84957031 -2.80015625 8.88664062 -2.6328125 7.89453125 C-2.01960483 5.08967396 -1.14333657 2.62775253 0 0 Z " fill="#16335E" transform="translate(121,96)"/>
<path d="M0 0 C-0.30782496 1.64671412 -0.62139234 3.29235576 -0.9375 4.9375 C-1.11152344 5.85402344 -1.28554687 6.77054687 -1.46484375 7.71484375 C-2 10 -2 10 -3 11 C-4.66429051 11.09823937 -6.33281931 11.12973631 -8 11.125 C-9.36125 11.12886719 -9.36125 11.12886719 -10.75 11.1328125 C-13 11 -13 11 -14 10 C-14.44787616 6.77529167 -14.06476989 5.13248387 -12.625 2.1875 C-8.69020907 -1.09149244 -4.92786383 -0.42319441 0 0 Z " fill="#1E3A64" transform="translate(85,96)"/>
<path d="M0 0 C-0.66 3.63 -1.32 7.26 -2 11 C-9.71484375 11.09765625 -9.71484375 11.09765625 -12 11 C-13 10 -13 10 -13.3125 7.1875 C-13 4 -13 4 -11.5625 1.625 C-7.67632781 -0.83940188 -4.54866791 -0.2675687 0 0 Z " fill="#1E3A64" transform="translate(146,96)"/>
<path d="M0 0 C0.66 0.66 1.32 1.32 2 2 C1.80688109 5.02552967 1.44392901 7.26011831 -0.125 9.875 C-3.08495867 11.6509752 -5.63857808 11.30558381 -9 11 C-9.66 10.34 -10.32 9.68 -11 9 C-10.83464093 5.85817768 -10.17165881 4.23523615 -8.3125 1.6875 C-5.3343777 -0.48572438 -3.60999687 -0.47086916 0 0 Z " fill="#1F3B64" transform="translate(107,96)"/>
<path d="M0 0 C0.99 0 1.98 0 3 0 C3 1.98 3 3.96 3 6 C5.87420123 3.28395285 5.87420123 3.28395285 8 0 C9.32 0.33 10.64 0.66 12 1 C10.24505922 3.5115113 8.46856271 6.0069614 6.6875 8.5 C6.18798828 9.21542969 5.68847656 9.93085937 5.17382812 10.66796875 C4.44389648 11.68310547 4.44389648 11.68310547 3.69921875 12.71875 C3.25408936 13.34716797 2.80895996 13.97558594 2.3503418 14.62304688 C1.904729 15.07744141 1.45911621 15.53183594 1 16 C0.01 16 -0.98 16 -2 16 C-1.67257813 15.29488281 -1.34515625 14.58976562 -1.0078125 13.86328125 C0.08400722 10.76132833 0.20385396 8.45993947 0.125 5.1875 C0.10695312 4.21167969 0.08890625 3.23585938 0.0703125 2.23046875 C0.04710937 1.49441406 0.02390625 0.75835937 0 0 Z " fill="#18345F" transform="translate(148,96)"/>
<path d="M0 0 C1.28961193 2.57922387 0.79211692 3.40291211 0.00390625 6.1328125 C-0.22490234 6.93847656 -0.45371094 7.74414062 -0.68945312 8.57421875 C-0.93630859 9.41597656 -1.18316406 10.25773437 -1.4375 11.125 C-1.68048828 11.97449219 -1.92347656 12.82398437 -2.17382812 13.69921875 C-2.7761431 15.80141612 -3.38510525 17.90145431 -4 20 C-5.32 19.67 -6.64 19.34 -8 19 C-7.34 15.37 -6.68 11.74 -6 8 C-6.99 8.33 -7.98 8.66 -9 9 C-8.63594751 6.29561004 -8.31857318 5.25593617 -6.15234375 3.515625 C-5.42144531 3.09796875 -4.69054688 2.6803125 -3.9375 2.25 C-3.20402344 1.82203125 -2.47054687 1.3940625 -1.71484375 0.953125 C-1.14894531 0.63859375 -0.58304688 0.3240625 0 0 Z " fill="#409DFF" transform="translate(57,87)"/>
<path d="M0 0 C3.3 0 6.6 0 10 0 C7.9957983 4.0084034 6.50944037 5.41409657 3 8 C4.32 8.33 5.64 8.66 7 9 C7 9.66 7 10.32 7 11 C3.7 11 0.4 11 -3 11 C-1.11656068 7.23312136 -0.30867531 6.20578354 3 4 C2.01 3.67 1.02 3.34 0 3 C0 2.01 0 1.02 0 0 Z " fill="#29436B" transform="translate(87,96)"/>
<path d="M0 0 C-0.66 3.3 -1.32 6.6 -2 10 C-4.64 10 -7.28 10 -10 10 C-9.06742166 5.89665529 -8.35870974 4.28397854 -5 1.625 C-2 0 -2 0 0 0 Z " fill="#0F2B55" transform="translate(50,97)"/>
<path d="M0 0 C1.32 0 2.64 0 4 0 C3.47731534 2.76276177 2.89130413 5.3260876 2 8 C0.00045254 8.04254356 -2.00041636 8.04080783 -4 8 C-5 7 -5 7 -5.0625 4.4375 C-5.041875 3.633125 -5.02125 2.82875 -5 2 C-4.360625 1.855625 -3.72125 1.71125 -3.0625 1.5625 C-1.02454854 1.18992819 -1.02454854 1.18992819 0 0 Z " fill="#244068" transform="translate(76,99)"/>
<path d="M0 0 C1.134375 0.020625 2.26875 0.04125 3.4375 0.0625 C3.4375 1.0525 3.4375 2.0425 3.4375 3.0625 C2.1175 3.3925 0.7975 3.7225 -0.5625 4.0625 C-1.2225 6.3725 -1.8825 8.6825 -2.5625 11.0625 C-3.8825 11.0625 -5.2025 11.0625 -6.5625 11.0625 C-6.25467504 9.41578588 -5.94110766 7.77014424 -5.625 6.125 C-5.45097656 5.20847656 -5.27695313 4.29195313 -5.09765625 3.34765625 C-4.23191997 -0.34910085 -4.05009019 0.07105421 0 0 Z " fill="#1D3963" transform="translate(115.5625,95.9375)"/>
<path d="M0 0 C0.99 0 1.98 0 3 0 C2.67 2.31 2.34 4.62 2 7 C3.32 7.99 4.64 8.98 6 10 C3.66705225 10.04241723 1.33297433 10.04092937 -1 10 C-2 9 -2 9 -2.1875 6.125 C-2 3 -2 3 0 0 Z " fill="#193560" transform="translate(135,97)"/>
<path d="M0 0 C0.66 0 1.32 0 2 0 C1.01 2.97 0.02 5.94 -1 9 C-1.33 8.34 -1.66 7.68 -2 7 C-3.65 7 -5.3 7 -7 7 C-4.66666667 4.66666667 -2.33333333 2.33333333 0 0 Z " fill="#E4E7EC" transform="translate(96,98)"/>
<path d="M0 0 C0.33 0.66 0.66 1.32 1 2 C3.02463255 2.65213292 3.02463255 2.65213292 5 3 C2.03 5.475 2.03 5.475 -1 8 C-1.66 7.67 -2.32 7.34 -3 7 C-2.625 4.0625 -2.625 4.0625 -2 1 C-1.34 0.67 -0.68 0.34 0 0 Z " fill="#E6E9EE" transform="translate(86,97)"/>
<path d="M0 0 C1.32 0 2.64 0 4 0 C6.1519437 3.22791555 6.20086443 4.28400809 6 8 C5.01 8 4.02 8 3 8 C2.87625 7.195625 2.7525 6.39125 2.625 5.5625 C2.315625 4.2940625 2.315625 4.2940625 2 3 C1.34 2.67 0.68 2.34 0 2 C0 1.34 0 0.68 0 0 Z " fill="#072654" transform="translate(63,99)"/>
<path d="M0 0 C0.99 0.495 0.99 0.495 2 1 C2.99 0.67 3.98 0.34 5 0 C4.52060632 4.71403788 4.03165952 8.66579301 2 13 C0.68776504 9.06329512 1.75703744 6.87511856 3 3 C2.01 3.33 1.02 3.66 0 4 C0 2.68 0 1.36 0 0 Z " fill="#ABC8E6" transform="translate(47,94)"/>
<path d="M0 0 C1.32 0 2.64 0 4 0 C3.67 1.65 3.34 3.3 3 5 C1.68 5.33 0.36 5.66 -1 6 C-1.042721 4.33388095 -1.04063832 2.66617115 -1 1 C-0.67 0.67 -0.34 0.34 0 0 Z " fill="#EDEFF2" transform="translate(124,99)"/>
<path d="M0 0 C1.32 0 2.64 0 4 0 C3.67 1.65 3.34 3.3 3 5 C1.68 5.33 0.36 5.66 -1 6 C-1.042721 4.33388095 -1.04063832 2.66617115 -1 1 C-0.67 0.67 -0.34 0.34 0 0 Z " fill="#EDEFF2" transform="translate(101,99)"/>
<path d="M0 0 C1.32 0 2.64 0 4 0 C3.67 1.65 3.34 3.3 3 5 C1.68 5.33 0.36 5.66 -1 6 C-1.042721 4.33388095 -1.04063832 2.66617115 -1 1 C-0.67 0.67 -0.34 0.34 0 0 Z " fill="#EDEFF2" transform="translate(76,99)"/>
<path d="M0 0 C0.99 0 1.98 0 3 0 C3 1.65 3 3.3 3 5 C1.68 5.33 0.36 5.66 -1 6 C-1.625 4.125 -1.625 4.125 -2 2 C-1.34 1.34 -0.68 0.68 0 0 Z " fill="#EDEFF2" transform="translate(138,99)"/>
<path d="M0 0 C1.65 0 3.3 0 5 0 C5 1.32 5 2.64 5 4 C3.02 4 1.04 4 -1 4 C-0.67 2.68 -0.34 1.36 0 0 Z " fill="#D6DBE3" transform="translate(63,94)"/>
<path d="M0 0 C0.33 0.66 0.66 1.32 1 2 C2.65 2 4.3 2 6 2 C6 2.66 6 3.32 6 4 C3.03 4 0.06 4 -3 4 C-2.01 2.68 -1.02 1.36 0 0 Z " fill="#072654" transform="translate(88,103)"/>
<path d="M0 0 C1.32 0.33 2.64 0.66 4 1 C2.71034824 2.37562854 1.37310707 3.70766393 0 5 C-0.66 5 -1.32 5 -2 5 C-1.34 3.35 -0.68 1.7 0 0 Z " fill="#254068" transform="translate(156,96)"/>
</svg>
